<?xml version="1.0" encoding="UTF-8"?> <svg xmlns="http://www.w3.org/2000/svg" width="121" height="101" viewBox="0 0 121 101" fill="none"><path d="M48.8802 87.6C33.6002 87.6 21.7602 83.96 13.3602 76.68C4.96016 69.32 0.760156 58.44 0.760156 44.04C0.760156 29.72 4.96016 18.92 13.3602 11.64C21.7602 4.28 33.8802 0.599997 49.7202 0.599997H71.3202C87.1602 0.599997 99.2802 4.28 107.68 11.64C116.08 18.92 120.28 29.72 120.28 44.04C120.28 58.44 116.08 69.32 107.68 76.68C99.2802 83.96 87.3602 87.6 71.9202 87.6H70.3602V100.2H51.1602V87.6H48.8802ZM70.3602 57V72C80.6802 71.92 88.3202 69.68 93.2802 65.28C98.2402 60.88 100.72 53.8 100.72 44.04C100.72 34.28 98.2002 27.2 93.1602 22.8C88.2002 18.4 80.4802 16.2 70.0002 16.2H51.0402C40.6402 16.2 32.9202 18.4 27.8802 22.8C22.8402 27.2 20.3202 34.28 20.3202 44.04C20.3202 53.8 22.8402 60.92 27.8802 65.4C32.9202 69.8 40.6802 72 51.1602 72V57H70.3602Z" fill="url(#paint0_linear_438_119)"></path><defs><linearGradient id="paint0_linear_438_119" x1="110.11" y1="-38.0316" x2="-0.754329" y2="119.925" gradientUnits="userSpaceOnUse"><stop stop-color="#F5B40B"></stop><stop offset="0.465" stop-color="white"></stop><stop offset="0.535" stop-color="white"></stop><stop offset="1" stop-color="#FF9900"></stop></linearGradient></defs></svg> 